<svg width="22" height="20" viewBox="0 0 22 20" fill="none" xmlns="http://www.w3.org/2000/svg">
<path d="M21.8406 13.1844C21.8406 16.5034 19.15 19.194 15.831 19.194L6.81658 19.194C5.89464 19.194 5.14725 18.4466 5.14725 17.5246L5.14725 6.17317C5.14725 4.32928 6.64202 2.83451 8.48592 2.83451L20.1712 2.83451C21.0932 2.83451 21.8406 3.58189 21.8406 4.50384L21.8406 13.1844Z" fill="#E8F5E9"/>
<path d="M8.14861 3.83606C6.9563 3.83606 5.98564 4.81559 5.98564 6.01298C5.98564 6.77047 6.37461 7.4393 6.96198 7.82915C6.25256 8.06636 5.63871 8.50969 5.18848 9.08968C4.93956 8.89821 4.66142 8.74423 4.36158 8.63389C4.81627 8.29634 5.11339 7.7541 5.11339 7.14467C5.11339 6.12913 4.29205 5.29779 3.28267 5.29779C2.27329 5.29779 1.45195 6.12913 1.45195 7.14467C1.45195 7.75445 1.74932 8.29693 2.20439 8.63449C0.999603 9.07907 0.13916 10.243 0.13916 11.6129V12.5752C0.139283 12.6485 0.168626 12.7188 0.220653 12.7705C0.27268 12.8222 0.343079 12.8511 0.416435 12.8508H4.63817C4.6484 12.8519 4.65863 12.8526 4.66886 12.8524H11.6286C11.6388 12.8526 11.6492 12.8519 11.6593 12.8508H15.8813C16.0331 12.8502 16.156 12.7271 16.1564 12.5752V11.6129C16.1564 10.243 15.2974 9.07907 14.0933 8.63436C14.5483 8.29693 14.8457 7.75432 14.8457 7.14454C14.8457 6.12901 14.0244 5.29766 13.015 5.29766C12.0057 5.29766 11.1843 6.12901 11.1843 7.14454C11.1843 7.75397 11.4815 8.2963 11.9362 8.63376C11.6358 8.74435 11.3575 8.89883 11.1082 9.09078C10.6582 8.51045 10.0452 8.0665 9.33582 7.82915C9.92303 7.4393 10.3122 6.77047 10.3122 6.01298C10.3122 4.81559 9.341 3.83606 8.14868 3.83606H8.14861ZM8.14861 4.38839C9.04036 4.38839 9.75925 5.11211 9.75925 6.01298C9.75925 6.90682 9.05157 7.6235 8.16969 7.63498C8.16267 7.63498 8.15576 7.634 8.14861 7.634C8.14146 7.634 8.13468 7.63498 8.12753 7.63498C7.24566 7.62364 6.53845 6.90685 6.53845 6.01298C6.53845 5.11198 7.25674 4.38839 8.14849 4.38839H8.14861ZM3.2827 5.85009C3.99026 5.85009 4.56109 6.42436 4.56109 7.14464C4.56109 7.86009 3.99764 8.43189 3.29675 8.43966C3.29206 8.43966 3.2875 8.43917 3.28269 8.43917C3.27801 8.43917 3.27345 8.43966 3.26864 8.43966C2.56774 8.43189 2.0043 7.85996 2.0043 7.14464C2.0043 6.42439 2.57513 5.85009 3.28268 5.85009H3.2827ZM13.0148 5.85009C13.7224 5.85009 14.2932 6.42436 14.2932 7.14464C14.2932 7.86009 13.7298 8.43189 13.0289 8.43966C13.0242 8.43966 13.0196 8.43917 13.0148 8.43917C13.0101 8.43917 13.0056 8.43966 13.0008 8.43966C12.2999 8.43189 11.7364 7.85996 11.7364 7.14464C11.7364 6.42439 12.3073 5.85009 13.0148 5.85009H13.0148ZM8.12746 8.18729C8.13449 8.18741 8.1414 8.18827 8.14855 8.18827C8.15558 8.18827 8.16248 8.18729 8.16963 8.18729C9.93821 8.19863 11.3536 9.6262 11.3536 11.4132L11.3535 12.2999H4.94387V11.4132C4.94387 9.62604 6.35886 8.19865 8.12721 8.18729H8.12746ZM3.26156 8.99262C3.26858 8.99275 3.27549 8.99361 3.28264 8.99361C3.28979 8.99361 3.29657 8.99262 3.30372 8.99262C3.90191 8.99743 4.44784 9.20369 4.88254 9.54878C4.57149 10.0992 4.3916 10.7344 4.3916 11.4134V12.298H0.691272V11.6129C0.691272 10.1605 1.83318 9.00395 3.26149 8.9925L3.26156 8.99262ZM12.9937 8.99262C13.0008 8.99275 13.0076 8.99361 13.0148 8.99361C13.0219 8.99361 13.0287 8.99262 13.0359 8.99262C14.4642 9.00397 15.6061 10.1607 15.6061 11.613V12.298H11.9039L11.9037 11.4134C11.9037 10.7348 11.7243 10.1 11.4139 9.54976C11.8487 9.20418 12.395 8.99742 12.9937 8.99262H12.9937Z" fill="#103E13"/>
</svg>
